<?xml version="1.0" standalone="no"?>
<!DOCTYPE svg PUBLIC "-//W3C//DTD SVG 1.1//EN" "http://www.w3.org/Graphics/SVG/1.1/DTD/svg11.dtd">
<svg xmlns="http://www.w3.org/2000/svg">
<metadata>Copyright (C) 2021 by original authors @ fontello.com</metadata>
<defs>
<font id="smotrow-icon" horiz-adv-x="1000" >
<font-face font-family="smotrow-icon" font-weight="400" font-stretch="normal" units-per-em="1000" ascent="850" descent="-150" />
<missing-glyph horiz-adv-x="1000" />
<glyph glyph-name="back-button-arrow" unicode="&#xe800;" d="M0 53a30 30 0 0 1 11-22l212-181 14 12a30 30 0 0 1 10 9l188 160a30 30 0 1 1-38 45l-144-123v867a30 30 0 1 1-59 0v-868l-145 124a30 30 0 0 1-49-23z" horiz-adv-x="445" />

<glyph glyph-name="dropdown" unicode="&#xe801;" d="M0 850l1000-1000 1000 1000z" horiz-adv-x="2000" />

<glyph glyph-name="carousel-arrow" unicode="&#xe802;" d="M1408 850l-33-38 500-436h-1875v-51h1875l-500-436 33-39 574 500z" horiz-adv-x="1982" />

<glyph glyph-name="carousel-angle-arrow" unicode="&#xe803;" d="M71 850l-71-71 929-929 929 929-70 71-859-859z" horiz-adv-x="1858" />

<glyph glyph-name="facebook" unicode="&#xe804;" d="M385 850c-136 0-235-83-235-235v-115h-100a50 50 0 0 1-50-50v-100a50 50 0 0 1 50-50h100v-400a50 50 0 0 1 50-50h100a50 50 0 0 1 50 50v400l109 0a50 50 0 0 1 49 45l12 99a50 50 0 0 1-50 56h-120v100c0 52 4 84 78 84h43a50 50 0 0 1 51 50v63a50 50 0 0 1-47 50 1308 1308 0 0 1-90 3z" horiz-adv-x="521" />

<glyph glyph-name="instagram" unicode="&#xe805;" d="M276 850a276 276 0 0 1-276-276v-448a276 276 0 0 1 276-276h448a276 276 0 0 1 276 276v448a276 276 0 0 1-276 276z m0-89h448a188 188 0 0 0 187-187v-448a188 188 0 0 0-187-187h-448a188 188 0 0 0-187 187v448a188 188 0 0 0 187 187z m493-78a65 65 0 0 1-65-65c0-17 7-34 19-46 12-12 28-19 46-19a66 66 0 0 1 46 19 65 65 0 0 1 0 92 65 65 0 0 1-46 19z m-269-75v0a258 258 0 0 1-258-258 258 258 0 0 1 258-258 258 258 0 0 1 258 258 258 258 0 0 1-258 258z m0-89a169 169 0 0 0 169-169 169 169 0 0 0-169-169 169 169 0 0 0-169 169 169 169 0 0 0 169 169z" horiz-adv-x="1000" />

<glyph glyph-name="twitter" unicode="&#xe806;" d="M857 850a253 253 0 0 1-251-310 717 717 0 0 0-520 264 251 251 0 0 1-34-127 252 252 0 0 1 112-210 253 253 0 0 0-114 31v-3a253 253 0 0 1 202-247 256 256 0 0 0-66-9 242 242 0 0 0-48 4 253 253 0 0 1 236-175 507 507 0 0 0-314-108c-20 0-40 1-60 3a714 714 0 0 1 387-113c465 0 718 385 718 719l0 32a504 504 0 0 1 126 131c-45-20-94-34-145-40a254 254 0 0 1 111 139 509 509 0 0 0-160-61 253 253 0 0 1-180 80z" horiz-adv-x="1231" />

<glyph glyph-name="linked-in" unicode="&#xe807;" d="M127 850c-77 0-127-50-127-117 0-64 49-116 124-116h1c79 0 127 52 127 116-1 67-48 117-125 117z m661-309c-119 0-172-66-202-112v-2h-1c0 1 1 1 1 2v96h-224c3-64 0-675 0-675h224v377c0 20 2 40 8 55 16 40 53 82 115 82 81 0 113-62 113-153v-361h225v387c0 207-111 304-259 304z m-775-16v-675h225v675z" horiz-adv-x="1047" />

<glyph glyph-name="header-arrow" unicode="&#xe808;" d="M130 850l-130-119 807-881 808 881-131 119-677-738z" horiz-adv-x="1615" />

<glyph glyph-name="header-marker" unicode="&#xe809;" d="M350 850c-191 0-350-145-350-350 0-73 19-126 52-181l266-450a38 38 0 0 1 64 0l267 450c32 55 51 108 51 181 0 205-159 350-350 350z m0-75c154 0 275-107 275-275 0-62-12-94-41-143l-234-396-234 396c-29 49-41 81-41 143 0 168 121 275 275 275z m0-100c-96 0-175-79-175-175 0-96 79-175 175-175 96 0 175 79 175 175 0 96-79 175-175 175z m0-75c56 0 100-44 100-100 0-56-44-100-100-100s-100 44-100 100c0 56 44 100 100 100z" horiz-adv-x="700" />

<glyph glyph-name="header-search" unicode="&#xe80a;" d="M433 850c-307-11-513-320-403-607 109-287 468-381 704-185h0l0 0 197-196c39-37 94 19 58 58l-196 197h0c246 297 26 746-360 733z m15-105c453-4 453-681 0-685-453 4-453 681 0 685z" horiz-adv-x="1001" />

<glyph glyph-name="header-store" unicode="&#xe80b;" d="M428 850c-74 0-137-65-172-164h-174c-15 0-26-10-27-23l-55-787a23 23 0 0 1 7-18c5-5 13-8 20-8h803c15 0 27 11 27 24a22 22 0 0 1-1 6l-54 783c-1 13-13 23-27 23h-174c-35 99-98 164-173 164z m0-49c42 0 86-44 115-115h-229c28 71 73 115 114 115z m-320-164h134c-9-38-14-79-14-123 0-14 12-25 27-25s27 11 27 25c0 45 6 86 16 123h261c9-37 15-78 15-123 0-14 12-25 28-25v0c15 0 27 11 27 25 0 44-5 85-14 123h134l51-738h-744z" horiz-adv-x="857" />

<glyph glyph-name="international-locale" unicode="&#xe80c;" d="M743 318a11 11 0 0 0-10-7h-665v472h664a11 11 0 0 0 8-20l-188-192a34 34 0 0 1 0-48l188-193a11 11 0 0 0 3-12z m46 60l-166 169 166 169a79 79 0 0 1-57 134h-698a34 34 0 0 1-34-34v-932a34 34 0 0 1 68 0v360h664a79 79 0 0 1 56 133z" horiz-adv-x="811" />

<glyph glyph-name="modal-cross" unicode="&#xe80d;" d="M926 850l-926-926 74-74 926 927z m-852 0l-74-73 926-927 74 74z" horiz-adv-x="1000" />

<glyph glyph-name="international-time" unicode="&#xe80e;" d="M94 388c17 259 234 462 499 462a498 498 0 0 0 498-499c0-275-222-501-498-501a506 506 0 0 0-412 215c-9 13-6 30 8 39 11 8 28 5 39-6a439 439 0 0 1 365-192c245 0 443 200 443 445a442 442 0 0 1-443 443c-234 0-426-178-443-406h78c11 0 17-12 8-20l-106-139a14 14 0 0 0-19 0l-109 139c-5 8 0 20 9 20z m471 225c0 37 56 37 56 0v-250l128-131c25-25-14-64-39-39l-139 139c-3 3-6 11-6 19z" horiz-adv-x="1091" />

<glyph glyph-name="service-select" unicode="&#xe80f;" d="M640-86c38 37 70 90 95 153h125a460 460 0 0 0-220-153z m-118-18v171h164c-40-94-99-159-164-171z m-44 737h-164c40 94 99 159 164 171z m0-261h-216c2 79 15 153 36 217h180z m0-261h-180c-21 64-34 138-36 217h216z m0-215c-65 11-124 77-164 171h164z m-212 171c24-63 56-116 94-154a459 459 0 0 0-220 154z m-223 261h175c2-79 13-152 33-217h-141a455 455 0 0 0-67 217z m67 261h141c-20-64-31-138-33-217h-175c4 79 28 153 67 217z m250 198c-38-38-70-91-94-154h-126a460 460 0 0 0 220 154z m601-242z m-27-52c13-38 21-79 23-121h-94c-11-17-20-32-28-44h122c-3-79-27-153-67-217h-141c14 45 23 95 29 148l-31 45a913 913 0 0 0-9 13c-3-75-16-145-36-206h-180v217h208c-7 12-17 27-28 44h-180v217h63a213 213 0 0 0-14 44h-49v171c23-4 46-15 67-32 11 23 25 43 43 60-42 11-86 18-132 18-276 0-500-224-500-500 0-276 224-500 500-500 276 0 500 224 500 500 0 69-14 135-39 195-8-17-17-35-27-52z m-151 270a87 87 0 0 0 0-174 87 87 0 0 0 0 174z m-172-107c3-23 10-45 20-64 47-113 152-264 152-264s104 151 151 264a172 172 0 0 1 21 64c1 7 2 14 2 20a174 174 0 0 1-348 0c0-6 0-13 2-20z" horiz-adv-x="1000" />

<glyph glyph-name="circle-button" unicode="&#xe810;" d="M294 307l-29-29 235-235 234 235-28 29-206-206z m186 322v-557h40v557z m20 221c-276 0-500-224-500-500s224-500 500-500 500 224 500 500-224 500-500 500z m0-39c255 0 461-206 461-461s-206-461-461-461-461 206-461 461 206 461 461 461z" horiz-adv-x="1000" />

<glyph glyph-name="header-support" unicode="&#xe811;" d="M391 850c-215 1-391-176-391-389v-212c0-42 28-78 65-91v-50c0-106 87-194 194-194a64 64 0 0 1 64-64h109a64 64 0 0 1 65 64v64a64 64 0 0 1-65 65h-108a64 64 0 0 1-64-65 130 130 0 0 0-130 130v44h39a26 26 0 0 1 27 27v257a26 26 0 0 1-27 27h-72c-11 0-22-2-32-7v5c0 177 146 325 325 325 179-1 323-145 323-323v-7c-10 3-21 7-33 7h-71a26 26 0 0 1-27-27v-259c0-14 12-26 27-26h72c53 0 97 43 97 97v215c0 212-174 386-387 387z m-294-452h33v-181h-33a33 33 0 0 0-32 33v116c0 18 14 32 32 32z m551 0h33c18 0 32-14 32-32v-117a33 33 0 0 0-32-33h-33z m-324-419h109v-64h-109z" horiz-adv-x="778" />

<glyph glyph-name="quote" unicode="&#xe812;" d="M1041-150h-514v390c0 321 120 491 429 610l13-33c-296-114-406-270-406-577v-354h442v392h-280l-1 16c-16 197 62 313 290 429l16-31c-206-106-281-210-273-378h282z m-844 428l-2 16c-15 197 64 313 292 429l16-31c-206-106-281-210-273-378h220v-36z m253-428h-450v390c0 321 120 491 428 610l13-33c-295-114-405-270-405-577v-354h414z" horiz-adv-x="1040" />

<glyph glyph-name="button-arrow" unicode="&#xe813;" d="M1447 850l-72-72 428-428-428-428 72-72 500 500z m-1447-449v-102h1875v102z" horiz-adv-x="1947" />

<glyph glyph-name="header-bold-cross" unicode="&#xe814;" d="M73 850a73 73 0 0 1-51-125l854-853a73 73 0 1 1 102 102l-853 854a73 73 0 0 1-52 22z m852 0a73 73 0 0 1-49-22l-854-854a73 73 0 1 1 103-102l853 853a73 73 0 0 1-53 125z" horiz-adv-x="1000" />

<glyph glyph-name="large-link" unicode="&#xe815;" d="M173 850v-102h662l-835-826 72-72 826 817v-665h102v848z" horiz-adv-x="1000" />

<glyph glyph-name="link" unicode="&#xe816;" d="M334 850v-142h401l-735-759 102-99 732 756v-431h142v675z" horiz-adv-x="976" />

<glyph glyph-name="slider-ar" unicode="&#xe817;" d="M494 850l-494-494 506-506 68 68-387 387 963 4 0 95-971-4 382 382z" horiz-adv-x="1150" />
</font>
</defs>
</svg>
