<svg id="Smotrow_Design_Logo" data-name="Smotrow Design Logo" xmlns="http://www.w3.org/2000/svg" width="135" height="30.24" viewBox="0 0 135 30.24">
  <g id="SMOTROW" transform="translate(0 4.033)">
    <g id="Group_1" data-name="Group 1" transform="translate(0 0)">
      <path id="Path_1" data-name="Path 1" d="M140.351,124.178c0,2.009-1.478,5.341-6.046,5.341-3.617,0-5.941-1.56-6.494-5.526h.871a5.109,5.109,0,0,0,5.334,4.414c3.088,0,3.829-2.169,3.829-3.119,0-2.037-1.664-3.147-4.832-4.786-2.006-1.031-5.412-2.724-5.412-6.029,0-4.2,4.144-5.05,5.623-5.05,3.7,0,5.228,1.957,5.755,4.733h-.95a4.556,4.556,0,0,0-4.779-3.65,3.346,3.346,0,0,0-3.38,2.988c0,1.957,2.35,3.2,4.779,4.441C139.243,120.24,140.351,121.879,140.351,124.178Z" transform="translate(-127.599 -109.346)"/>
      <path id="Path_2" data-name="Path 2" d="M198.8,129.927l-.1.026h-2.823l-2.3-13.273L186.4,129.953l-6.572-12.4-1.425,12.4h-1.189l1.376-12c.154-1.665.843-6.107-2.115-6.794v-.133c3.752.106,5.015,3.516,6.02,5.367l4.831,9.228,8.157-15.017Z" transform="translate(-162.132 -110.176)"/>
      <path id="Path_3" data-name="Path 3" d="M276.647,119.2c0,7.005-4.169,10.073-9.319,10.073s-9.319-3.068-9.319-10.073c0-6.769,4.175-10.047,9.319-10.047S276.647,112.38,276.647,119.2Zm-3.17,0c0-6.213-2.741-9.175-6.149-9.175-3.378,0-6.15,3.016-6.15,9.175,0,6.4,2.771,9.174,6.15,9.174C270.736,128.375,273.477,125.6,273.477,119.2Z" transform="translate(-219.753 -109.155)"/>
      <path id="Path_4" data-name="Path 4" d="M337.26,111.79h-6.391v18.164h-2.9V111.79H321.55V110.6h15.71Z" transform="translate(-264.652 -110.176)"/>
      <path id="Path_5" data-name="Path 5" d="M399.145,129.952h-3.279l-6.147-8.724c-.8.025-1.533.025-2.17.025v8.7h-2.9v-16.63a2.614,2.614,0,0,0-2.351-2.591V110.6h5.251c3.037,0,9.162-.08,9.162,5.42,0,3.093-1.873,4.416-4.01,4.97Zm-6.471-10.841a2.8,2.8,0,0,0,.478-.74,4.928,4.928,0,0,0,.341-1.005,7.926,7.926,0,0,0,.1-1.349c-.132-4.2-3.378-4.493-3.961-4.493H387.55v8.7h2.087a6.691,6.691,0,0,0,1.027-.08,3.807,3.807,0,0,0,1.428-.5A3.609,3.609,0,0,0,392.674,119.111Z" transform="translate(-307.577 -110.176)"/>
      <path id="Path_6" data-name="Path 6" d="M460.162,119.2c0,7.005-4.175,10.073-9.327,10.073s-9.316-3.068-9.316-10.073c0-6.769,4.175-10.047,9.316-10.047S460.162,112.38,460.162,119.2Zm-3.17,0c0-6.213-2.747-9.175-6.158-9.175-3.373,0-6.147,3.016-6.147,9.175,0,6.4,2.774,9.174,6.147,9.174C454.246,128.375,456.992,125.6,456.992,119.2Z" transform="translate(-349.424 -109.155)"/>
      <path id="Path_7" data-name="Path 7" d="M526.78,110.6l-7.421,19.751-4.675-13.458-4.592,13.456-6.6-18.138v-.026a2.094,2.094,0,0,0-1.428-1.294l-.6-.16V110.6h2.587a2.449,2.449,0,0,1,2.269,1.587v.026l4.493,12.374L515.58,110.6l4.752,13.775,5.152-13.775Z" transform="translate(-391.78 -110.176)"/>
    </g>
  </g>
  <g id="Прямоугольник_1" data-name="Прямоугольник 1" transform="translate(102.555)" style="isolation: isolate">
    <path id="Прямоугольник_1-2" data-name="Прямоугольник 1" d="M2.456,0l.668.494L.239,2.513,0,2.336Z" fill-rule="evenodd"/>
  </g>
  <g id="DESIGN" transform="translate(107.284 25.761)">
    <g id="Group_2" data-name="Group 2" transform="translate(0)">
      <path id="Path_9" data-name="Path 9" d="M497.562,185.566a2.162,2.162,0,0,1-2.373,2.151h-1.373v-3.7a.571.571,0,0,0-.516-.569v-.03h1.89A2.139,2.139,0,0,1,497.562,185.566Zm-.72,0c-.005-1.939-1.373-1.939-1.653-1.939h-.725v3.867h.725C495.414,187.494,496.853,187.488,496.842,185.566Z" transform="translate(-493.299 -183.326)"/>
      <path id="Path_10" data-name="Path 10" d="M511.649,187.5v.22h-2.708v-3.7c0-.25-.165-.47-.522-.569v-.03h3.23v.226h-2.06v1.7h1.719v.264h-1.719v1.89Z" transform="translate(-503.982 -183.326)"/>
      <path id="Path_11" data-name="Path 11" d="M523.851,186.438a1.226,1.226,0,0,1-1.34,1.188,1.282,1.282,0,0,1-1.445-1.227h.192a1.132,1.132,0,0,0,1.187.979.747.747,0,0,0,.846-.693c0-.451-.374-.7-1.071-1.062-.445-.231-1.2-.605-1.2-1.34a1.182,1.182,0,0,1,1.252-1.125,1.155,1.155,0,0,1,1.274,1.051h-.209a1.011,1.011,0,0,0-1.066-.809.741.741,0,0,0-.747.663c0,.437.527.712,1.06.987C523.6,185.564,523.851,185.927,523.851,186.438Z" transform="translate(-512.884 -183.148)"/>
      <path id="Path_12" data-name="Path 12" d="M531.788,183.415v4.3h-.582v-3.7c0-.25-.165-.47-.527-.569v-.03Z" transform="translate(-519.712 -183.326)"/>
      <path id="Path_13" data-name="Path 13" d="M539.88,186.693a1.46,1.46,0,0,1-.242.319,2.2,2.2,0,1,1-1.505-3.9,1.952,1.952,0,0,1,1.758.9l-.143.146c-1.351-1.62-2.95-.528-2.95,1.194,0,1.439,1.318,2.574,2.554,1.582v-1.488h.527Z" transform="translate(-523.516 -183.115)"/>
      <path id="Path_14" data-name="Path 14" d="M554.6,183.415v4.3l-3.126-3.072v3.072h-.264V184.4c0-.333-.049-.822-.511-.957v-.03a1.311,1.311,0,0,1,.857.371l2.78,2.7v-3.075Z" transform="translate(-533.854 -183.326)"/>
    </g>
  </g>
</svg>
